<svg width="16" height="16" viewBox="0 0 16 16" fill="none" xmlns="http://www.w3.org/2000/svg">
<path d="M14.2479 8.62069C13.2795 9.75412 12.2336 11.0495 10.1419 11.0495C8.27342 11.0495 7.57733 9.51864 7.5284 8.27504C7.93776 9.07913 8.73815 9.73028 9.98691 9.70015C12.3886 9.62819 14.0349 7.61319 14.0349 5.77811C14.0349 3.58321 12.2724 2 9.21218 2C7.02355 2 4.31199 2.77361 2.5301 3.997C2.51073 5.25637 3.2661 6.89355 3.53725 6.71364C5.08203 5.68194 6.30698 5.0178 7.49509 4.68479C5.73635 6.50655 1.51665 10.7366 1 11.4813C1.05811 12.1649 1.96842 14 2.41389 14C2.54947 14 2.66568 13.928 2.80126 13.8021C4.0734 12.4744 5.11044 11.284 6.03286 10.1366C6.16238 11.8182 7.05261 13.8741 9.54144 13.8741C11.7688 13.8741 13.9768 12.3808 14.9839 9.01649C15.1002 8.6027 14.5578 8.27886 14.2479 8.62069ZM11.7107 5.90405C11.7107 6.96552 10.5873 7.48726 9.56081 7.48726C9.0121 7.48726 8.59059 7.35342 8.25725 7.17951C8.8706 6.3168 9.47775 5.43217 10.1301 4.48517C11.2803 4.666 11.7107 5.25988 11.7107 5.90405Z" fill="#FF4438"/>
</svg>
